# xmcd
# Copyright (c) 1998 CDDB Inc.
#
# Track frame offsets:
#	150
#	26120
#	41738
#	66044
#	84181
#	109880
#	120430
#	136213
#	163598
#	178756
#	193093
#
# Disc length: 2796 seconds
#
# Revision: 1
# Processed by: cddbd v1.4PL0 Copyright (c) Steve Scherf et al.
# Submitted via: AudioCatalyst 2.10full
#
DISCID=910aea0b
DTITLE=JK Bluesband - the bad side of the road
DYEAR=1900
DGENRE=
TTITLE0=bad side of the road
TTITLE1=southside blues
TTITLE2=The thrill is gone
TTITLE3=Stay away!
TTITLE4=Yeah, you know me?
TTITLE5=theme for the band
TTITLE6=She is trouble
TTITLE7=With a girl like you, it´s all over now...
TTITLE8=looking for the fox
TTITLE9=i´m ready
TTITLE10=crawlin king snake
EXTD=www.jkbluesband.de
EXTT0=
EXTT1=
EXTT2=
EXTT3=
EXTT4=
EXTT5=
EXTT6=
EXTT7=
EXTT8=
EXTT9=
EXTT10=
PLAYORDER=
